<?xml version="1.0" standalone="no"?><!DOCTYPE svg PUBLIC "-//W3C//DTD SVG 1.1//EN" "http://www.w3.org/Graphics/SVG/1.1/DTD/svg11.dtd"><svg t="1721721823139" class="icon" viewBox="0 0 1024 1024" version="1.1" xmlns="http://www.w3.org/2000/svg" p-id="11367" xmlns:xlink="http://www.w3.org/1999/xlink" width="200" height="200"><path d="M511.875 128.125c-211.875 0-383.75 76.25-383.75 170.625 0 94.375 171.875 170.625 383.75 170.625 211.875 0 383.75-76.25 383.75-170.625C896.25 204.375 724.375 128.125 511.875 128.125M128.125 383.75l0 128.125c0 94.375 171.875 170.625 383.75 170.625 211.875 0 383.75-76.25 383.75-170.625l0-128.125c0 94.375-171.875 170.625-383.75 170.625C300 555 128.125 478.125 128.125 383.75M128.125 597.5l0 128.125c0 94.375 171.875 170.625 383.75 170.625 211.875 0 383.75-76.25 383.75-170.625l0-128.125c0 94.375-171.875 170.625-383.75 170.625C300 768.125 128.125 691.875 128.125 597.5z" p-id="11368"></path></svg>